<!-- Generated by IcoMoon.io -->
<svg version="1.1" xmlns="http://www.w3.org/2000/svg" width="28" height="28" viewBox="0 0 1024 1024">
<title></title>
<g id="icomoon-ignore">
</g>
<path fill="#fff" d="M430.629 56.421c0 0 79.063 130.146 79.063 196.549s51.671 312.887 160.146 299.159c108.473-13.729 200.59-11.612 248.287-129.596 47.699-117.981-12.783-152.373-12.783-152.373l-187.909-184.039-150.718-41.968-136.085 12.268z"></path>
<path fill="#fff" d="M64.489 593.363l153.038 87.269 280.578 37.509 119.351 49.666 77.607 82.484-16.374 104.648-160.423 24.905-150.071-34.049-150.668-76.695-102.422-134.763-50.617-140.974z"></path>
<path fill="#000" d="M512.001 23.813c-269.182 0-488.186 219.004-488.186 488.186 0 31.222 3.073 61.757 8.693 91.374l-1.832 2.196c0.878 0.741 1.731 1.367 2.609 2.096 44.596 223.532 242.261 392.521 478.715 392.521 269.183 0 488.186-219.003 488.186-488.186s-219.003-488.186-488.186-488.186zM927.79 340.55c-0.653 158.377-141.905 192.148-201.278 199.309 49.488-170.656 35.388-334.476 24.576-408.602 78.541 49.513 140.8 122.586 176.702 209.293zM708.223 107.334c8.192 42.338 39.126 233.042-21.013 430.505-114.431-30.332-130.665-113.666-152.328-227.107-14.665-76.848-31.249-162.955-83.973-244.294 19.997-2.722 40.355-4.253 61.078-4.253 70.313 0 136.899 16.245 196.237 45.148zM409.732 74.054c55.86 78.918 72.671 166.367 87.473 243.88 21.502 112.638 41.974 219.267 177.821 256.486-10.023 27.612-21.942 55.172-36.092 82.318-281.752-136.485-454.629-355.74-492.212-406.733 62.573-87.022 155.416-150.836 263.010-175.951zM124.385 284.125c52.625 68.82 225.038 274.175 495.777 406.083-10.588 17.651-22.242 35.011-34.987 52.022-74.114-36.804-143.724-42.501-211.177-47.995-93.332-7.616-189.774-15.758-305.51-107.52-4.090-24.312-6.323-49.25-6.323-74.716 0.013-83.12 22.756-160.985 62.221-227.873zM82.117 644.457c108.034 73.135 199.736 80.763 288.788 88.038 64.143 5.232 125.097 10.288 189.676 40.546-52.036 60.89-119.965 115.848-208.127 159.427-128.771-49.035-229.429-155.503-270.337-288.011zM404.141 948.663c80.060-44.708 142.758-98.764 191.719-157.734 20.561 11.364 60.854 37.895 71.354 76.095 6.234 22.642 0.576 47.116-16.458 72.797-43.718 14.212-90.333 22.002-138.757 22.002-37.181-0.012-73.297-4.629-107.858-13.16zM702.915 919.172c6.358-21.137 6.923-42.036 1.267-62.509-13.398-48.461-57.682-80.713-84.413-96.306 12.895-17.599 24.676-35.538 35.414-53.741 67.162 30.132 139.959 55.396 218.112 73.009-44.194 59.499-102.702 107.684-170.379 139.547zM896.38 745.416c-79.946-16.834-154.212-42.074-222.541-72.459 15.932-30.808 29.129-62.121 40.029-93.405 33.697-2.448 128.081-15.041 191.921-80.124 21.437-21.852 37.095-47.492 47.142-76.471 5.808 28.791 8.895 58.559 8.895 89.043-0.012 85.416-23.947 165.338-65.446 233.417z"></path>
</svg>
