<!-- Generated by IcoMoon.io -->
<svg version="1.1" xmlns="http://www.w3.org/2000/svg" width="1024" height="1024" viewBox="0 0 1024 1024">
<title></title>
<g id="icomoon-ignore">
</g>
<path d="M512 8.001c-277.902 0-504 226.098-504 504 0 32.234 3.173 63.757 8.975 94.335l-1.891 2.266c0.907 0.765 1.787 1.412 2.693 2.164 46.040 230.771 250.11 405.235 494.221 405.235 277.901 0 504-226.099 504-504s-226.099-504-504-504zM941.259 334.999c-0.673 163.507-146.502 198.372-207.798 205.766 51.092-176.184 36.534-345.311 25.371-421.838 81.085 51.118 145.361 126.558 182.427 216.073zM714.581 94.228c8.455 43.709 40.393 240.59-21.694 444.451-118.141-31.316-134.898-117.349-157.265-234.465-15.14-79.337-32.261-168.233-86.692-252.207 20.643-2.81 41.664-4.39 63.059-4.39 72.59 0 141.334 16.771 202.591 46.61zM406.423 59.87c57.672 81.475 75.025 171.755 90.308 251.78 22.197 116.286 43.334 226.368 183.58 264.794-10.348 28.506-22.651 56.959-37.261 84.984-290.879-140.906-469.355-367.263-508.156-419.909 64.599-89.841 160.45-155.722 271.53-181.651zM111.84 276.748c54.329 71.047 232.327 283.056 511.836 419.233-10.93 18.224-22.963 36.148-36.122 53.707-76.514-37.997-148.38-43.877-218.015-49.55-96.356-7.863-195.922-16.267-315.408-111.004-4.222-25.099-6.527-50.846-6.527-77.136 0.013-85.813 23.493-166.2 64.236-235.253zM68.185 648.748c111.534 75.505 206.205 83.38 298.143 90.89 66.219 5.401 129.148 10.619 195.819 41.858-53.719 62.863-123.85 119.603-214.868 164.592-132.943-50.625-236.861-160.539-279.095-297.341zM400.65 962.81c82.653-46.157 147.382-101.963 197.929-162.846 21.226 11.735 62.826 39.124 73.667 78.561 6.438 23.377 0.596 48.644-16.992 75.154-45.133 14.675-93.259 22.717-143.248 22.717-38.388-0.014-75.673-4.779-111.353-13.587zM709.096 932.362c6.567-21.823 7.148-43.398 1.308-64.533-13.832-50.030-59.55-83.326-87.148-99.424 13.313-18.173 25.474-36.691 36.56-55.482 69.341 31.107 144.495 57.19 225.18 75.373-45.627 61.427-106.030 111.173-175.901 144.066zM908.818 752.978c-82.537-17.379-159.206-43.438-229.748-74.806 16.447-31.805 30.071-64.133 41.325-96.432 34.785-2.524 132.228-15.528 198.137-82.717 22.132-22.561 38.294-49.034 48.67-78.95 5.994 29.721 9.182 60.456 9.182 91.927-0.014 88.181-24.725 170.692-67.567 240.978z"></path>
</svg>
