<!-- Generated by IcoMoon.io -->
<svg version="1.1" xmlns="http://www.w3.org/2000/svg" width="32" height="32" viewBox="0 0 1024 1024">
<title></title>
<g id="icomoon-ignore">
</g>
<path fill="#000" d="M900.561 529.257c18.464-10.669 28.976-30.462 27.442-51.653-1.536-21.191-14.804-39.38-34.625-47.468l-173.317-70.725c-3.403-1.386-5.906-4.344-6.693-7.912l-40.127-181.563c-4.589-20.765-20.346-36.882-41.121-42.062-20.777-5.18-42.255 1.653-56.055 17.833l-120.669 141.474c-2.371 2.778-5.968 4.215-9.626 3.843l-186.231-18.922c-21.298-2.164-41.549 7.667-52.856 25.656s-11.314 40.402-0.020 58.49l98.74 158.161c1.938 3.105 2.218 6.952 0.745 10.289l-74.971 169.868c-8.574 19.43-5.335 41.62 8.454 57.919 13.788 16.301 35.267 23.318 56.044 18.319l181.692-43.726c3.569-0.858 7.339 0.082 10.087 2.515l139.898 123.907c6.959 6.163 15.101 10.381 23.713 12.528 11.185 2.789 23.165 2.084 34.368-2.394 19.826-7.92 33.106-25.994 34.656-47.169l13.553-185.183c0.268-3.637 2.318-6.903 5.486-8.735l161.435-93.29z"></path>
<path fill="#000" d="M877.875 220.944c-7.947-9.39-22.030-10.64-31.458-2.794l-30.835 25.659c-9.429 7.846-10.634 21.821-2.689 31.211 3.159 3.73 7.283 6.176 11.699 7.277 6.703 1.671 14.077 0.247 19.759-4.481l30.835-25.659c9.429-7.848 10.635-21.823 2.689-31.213z"></path>
<path fill="#000" d="M415.591 143.969l-15.179-37.132c-4.641-11.351-17.663-16.859-29.088-12.302-11.422 4.561-16.92 17.466-12.279 28.82l15.179 37.131c2.798 6.848 8.64 11.566 15.345 13.238 4.418 1.101 9.209 0.878 13.745-0.935 11.422-4.56 16.92-17.464 12.277-28.821z"></path>
<path fill="#000" d="M180.66 527.42c-0.885-12.208-11.571-21.434-23.871-20.606l-40.215 2.712c-12.3 0.829-21.551 11.402-20.666 23.609 0.71 9.825 7.768 17.716 16.904 19.994 2.219 0.553 4.563 0.774 6.967 0.612l40.215-2.713c12.298-0.829 21.55-11.398 20.666-23.609z"></path>
<path fill="#000" d="M452.357 848.603c-11.97-2.984-24.072 4.218-27.031 16.085l-9.676 38.81c-2.959 11.868 4.346 23.909 16.315 26.893s24.072-4.218 27.031-16.085l9.676-38.81c2.959-11.869-4.344-23.908-16.316-26.893z"></path>
<path fill="#000" d="M908.231 706.943l-34.234-21.275c-10.467-6.502-24.237-3.378-30.751 6.989s-3.308 24.042 7.163 30.548l34.234 21.275c2.047 1.271 4.219 2.174 6.438 2.727 9.137 2.278 19.074-1.377 24.313-9.717 6.513-10.365 3.306-24.041-7.163-30.546z"></path>
<path fill="#fff" d="M688.759 630.892l-13.554 185.187c-0.453 6.197-4.997 8.662-6.928 9.433-1.935 0.768-6.937 2.118-11.616-2.030l-139.898-123.907c-6.87-6.080-15.014-10.299-23.675-12.458s-17.834-2.259-26.753-0.115l-181.691 43.724c-6.082 1.463-9.865-2.074-11.209-3.661s-4.2-5.898-1.69-11.584l74.972-169.87c7.361-16.678 5.969-35.905-3.728-51.436l-98.74-158.159c-3.304-5.297-1.098-9.946 0.006-11.699 1.101-1.755 4.339-5.766 10.571-5.131l186.23 18.92c18.285 1.858 36.277-5.323 48.127-19.216l120.67-141.475c4.038-4.734 9.184-4.071 11.211-3.566 2.023 0.505 6.879 2.334 8.223 8.411v0.002l40.127 181.566c3.939 17.829 16.451 32.616 33.469 39.56l173.317 70.725c5.799 2.365 6.774 7.426 6.924 9.493 0.148 2.067-0.085 7.21-5.49 10.331l-161.433 93.29c-15.851 9.159-26.107 25.482-27.437 43.664z"></path>
</svg>
