<!-- Generated by IcoMoon.io -->
<svg version="1.1" xmlns="http://www.w3.org/2000/svg" width="32" height="32" viewBox="0 0 1024 1024">
<title></title>
<g id="icomoon-ignore">
</g>
<path fill="#fff" d="M377.637 296.029l461.748 89.756c118.209 22.979 195.412 139.263 172.099 259.214s-138.462 198.847-256.67 175.868c-69.905-13.588-128.862-61.224-157.671-127.412-0.311-0.704-0.761-1.293-1.143-1.961-0.208-0.334-0.356-0.642-0.566-0.96-1.085-1.549-2.403-2.88-3.918-3.974-0.313-0.237-0.638-0.421-0.96-0.602-1.694-1.057-3.533-1.904-5.542-2.296l-83.113-16.157c-2.014-0.391-4.015-0.294-5.998 0.050-0.374 0.084-0.76 0.112-1.115 0.199-1.815 0.444-3.533 1.169-5.122 2.217-0.313 0.216-0.565 0.445-0.883 0.678-0.6 0.457-1.243 0.854-1.792 1.391-51.519 50.575-124.014 72.657-193.919 59.072-118.208-22.979-195.412-139.262-172.099-259.214s138.463-198.847 256.67-175.868z"></path>
<path fill="#000" d="M992.048 563.378v-85.235c0-140.998-113.045-255.706-251.995-255.706h-218.428v-16.997c0-28.215 22.629-51.175 50.434-51.175h201.716c37.059 0 67.2-30.584 67.2-68.189s-30.142-68.188-67.2-68.188c-0.032 0-0.051 0.018-0.085 0.018h-537.47c-0.085 0-0.168-0.051-0.253-0.051-18.531 0-33.601-15.292-33.601-34.094 0-18.77 15.036-34.025 33.484-34.076 0.049 0 0.085 0.018 0.117 0.018h285.71c9.292 0 16.799-7.621 16.799-17.047s-7.51-17.047-16.799-17.047h-285.541c-0.068 0-0.1-0.032-0.168-0.032-37.061 0-67.201 30.583-67.201 68.188 0 37.435 29.868 67.847 66.711 68.137 0.185 0 0.317 0.101 0.485 0.101h537.755c0.032 0 0.051-0.018 0.068-0.018 18.529 0.018 33.582 15.292 33.582 34.094s-15.070 34.095-33.599 34.095c-0.019 0-0.019 0-0.019 0-0.017 0-0.017 0-0.032 0h-201.661c-46.334 0-84.031 38.255-84.031 85.271v16.997h-218.364c-138.949 0-251.995 114.71-251.995 255.706v85.235c0 140.997 113.046 255.706 251.995 255.706 79.228 0 153.867-38.066 201.431-102.283h67.535c47.56 64.217 122.203 102.283 201.431 102.283 138.95 0 251.995-114.71 251.995-255.706zM269.664 256.532h470.393c120.419 0 218.396 99.42 218.396 221.611s-97.977 221.611-218.396 221.611c-71.215 0-138.18-35.509-179.087-94.99-0.434-0.631-0.992-1.124-1.496-1.704-0.266-0.289-0.471-0.561-0.739-0.833-1.36-1.313-2.906-2.369-4.603-3.154-0.353-0.172-0.707-0.291-1.056-0.41-1.865-0.716-3.834-1.194-5.882-1.194h-84.672c-2.048 0-3.998 0.478-5.882 1.194-0.353 0.151-0.72 0.256-1.056 0.41-1.697 0.782-3.242 1.823-4.603 3.154-0.268 0.272-0.472 0.544-0.739 0.833-0.504 0.563-1.058 1.073-1.496 1.704-40.924 59.476-107.872 94.99-179.087 94.99-120.419 0-218.395-99.42-218.395-221.611s97.976-221.611 218.395-221.611zM479.321 631.566h51.055v51.14h-51.055v-51.14zM269.664 784.991c-102.546 0-188.559-72.16-211.91-169.005 44.856 70.764 122.991 117.865 211.91 117.865 66.394 0 129.341-27.022 176.062-73.473v33.48c-41.125 57.058-106.462 91.133-176.062 91.133v0zM740.054 784.991c-69.6 0-134.937-34.075-176.062-91.133v-33.48c46.721 46.455 109.668 73.473 176.062 73.473 88.919 0 167.053-47.101 211.909-117.865-23.351 96.845-109.368 169.005-211.909 169.005v0z"></path>
<path fill="#000" d="M185.63 529.283h33.632v34.126c0 28.197 22.612 51.142 50.398 51.142s50.398-22.945 50.398-51.142v-34.126h33.633c27.786 0 50.398-22.944 50.398-51.141s-22.612-51.141-50.398-51.141h-33.633v-34.126c0-28.197-22.611-51.141-50.398-51.141s-50.398 22.944-50.398 51.141v34.126h-33.632c-27.786 0-50.398 22.945-50.398 51.141s22.612 51.141 50.398 51.141zM185.63 461.096h50.434c9.292 0 16.798-7.621 16.798-17.047v-51.175c0-9.408 7.528-17.047 16.798-17.047s16.798 7.639 16.798 17.047v51.175c0 9.427 7.51 17.047 16.798 17.047h50.435c9.273 0 16.799 7.639 16.799 17.047s-7.529 17.047-16.799 17.047h-50.435c-9.292 0-16.798 7.62-16.798 17.047v51.175c0 9.409-7.528 17.048-16.798 17.048s-16.798-7.639-16.798-17.048v-51.175c0-9.427-7.51-17.047-16.798-17.047h-50.434c-9.274 0-16.798-7.639-16.798-17.047s7.528-17.047 16.798-17.047z"></path>
<path fill="#000" d="M656.493 529.284c27.786 0 50.398-22.945 50.398-51.141s-22.612-51.141-50.398-51.141c-27.786 0-50.398 22.944-50.398 51.141s22.612 51.141 50.398 51.141zM656.493 461.096c9.274 0 16.798 7.639 16.798 17.047s-7.528 17.047-16.798 17.047c-9.274 0-16.798-7.639-16.798-17.047s7.542-17.047 16.798-17.047z"></path>
<path fill="#000" d="M774.124 478.143c0 28.197 22.612 51.141 50.398 51.141s50.398-22.945 50.398-51.141c0-28.197-22.612-51.141-50.398-51.141s-50.398 22.944-50.398 51.141zM824.522 461.096c9.274 0 16.798 7.639 16.798 17.047s-7.528 17.047-16.798 17.047c-9.274 0-16.798-7.639-16.798-17.047s7.542-17.047 16.798-17.047z"></path>
<path fill="#000" d="M740.509 444.031c27.786 0 50.398-22.945 50.398-51.141s-22.612-51.141-50.398-51.141c-27.786 0-50.398 22.944-50.398 51.141s22.612 51.141 50.398 51.141zM740.509 375.842c9.274 0 16.798 7.639 16.798 17.047s-7.528 17.047-16.798 17.047c-9.274 0-16.798-7.639-16.798-17.047s7.542-17.047 16.798-17.047z"></path>
<path fill="#000" d="M740.509 512.255c-27.786 0-50.398 22.944-50.398 51.141s22.612 51.141 50.398 51.141c27.786 0 50.398-22.945 50.398-51.141s-22.594-51.141-50.398-51.141zM740.509 580.443c-9.274 0-16.798-7.639-16.798-17.047s7.528-17.047 16.798-17.047c9.274 0 16.798 7.639 16.798 17.047s-7.528 17.047-16.798 17.047z"></path>
</svg>
