<svg id="svg" xmlns="http://www.w3.org/2000/svg" xmlns:xlink="http://www.w3.org/1999/xlink" width="26" height="26" viewBox="0, 0, 400,400" version="1.1"><g id="svgg"><path id="path0" d="M0.178 96.573 C 0.321 97.337,0.564 98.045,0.718 98.147 C 0.872 98.250,1.108 99.409,1.242 100.725 C 1.376 102.040,1.652 103.281,1.854 103.484 C 2.057 103.686,2.222 104.235,2.222 104.704 C 2.222 105.172,2.367 105.556,2.545 105.556 C 2.722 105.556,2.979 106.544,3.116 107.752 C 3.252 108.960,3.519 110.002,3.707 110.067 C 3.896 110.132,4.091 110.727,4.141 111.389 C 4.191 112.051,4.347 112.593,4.488 112.593 C 4.630 112.593,4.860 113.426,5.000 114.444 C 5.140 115.463,5.406 116.296,5.590 116.296 C 5.775 116.296,5.926 116.786,5.926 117.386 C 5.926 117.985,6.073 118.566,6.253 118.677 C 6.433 118.788,6.695 119.798,6.835 120.921 C 6.976 122.044,7.245 122.963,7.434 122.963 C 7.623 122.963,7.778 123.366,7.778 123.858 C 7.778 124.350,7.929 124.809,8.115 124.877 C 8.300 124.944,8.565 125.917,8.704 127.037 C 8.842 128.157,9.107 129.130,9.293 129.198 C 9.478 129.265,9.630 129.817,9.630 130.423 C 9.630 131.029,9.777 131.434,9.957 131.323 C 10.138 131.211,10.401 132.201,10.542 133.523 C 10.684 134.845,10.953 135.926,11.141 135.926 C 11.328 135.926,11.481 136.343,11.481 136.852 C 11.481 137.361,11.627 137.778,11.804 137.778 C 11.981 137.778,12.240 138.778,12.378 140.000 C 12.516 141.222,12.788 142.222,12.981 142.222 C 13.175 142.222,13.333 142.806,13.333 143.519 C 13.333 144.231,13.488 144.815,13.677 144.815 C 13.866 144.815,14.135 145.731,14.275 146.852 C 14.415 147.972,14.677 148.889,14.857 148.889 C 15.038 148.889,15.185 149.389,15.185 150.000 C 15.185 150.611,15.333 151.111,15.513 151.111 C 15.693 151.111,15.955 152.028,16.095 153.148 C 16.235 154.269,16.504 155.185,16.693 155.185 C 16.882 155.185,17.037 155.602,17.037 156.111 C 17.037 156.620,17.180 157.037,17.356 157.037 C 17.531 157.037,17.777 157.899,17.902 158.953 C 18.026 160.007,18.300 161.040,18.509 161.249 C 18.718 161.459,18.889 162.106,18.889 162.689 C 18.889 163.300,19.045 163.651,19.259 163.519 C 19.477 163.384,19.636 163.796,19.646 164.515 C 19.655 165.189,19.902 166.407,20.196 167.222 C 20.489 168.037,20.732 168.981,20.735 169.321 C 20.738 169.660,20.892 169.994,21.078 170.062 C 21.263 170.130,21.528 171.102,21.667 172.222 C 21.805 173.343,22.070 174.315,22.256 174.383 C 22.441 174.451,22.593 175.076,22.593 175.772 C 22.593 176.468,22.740 177.037,22.921 177.037 C 23.101 177.037,23.365 177.809,23.506 178.752 C 23.741 180.317,23.913 180.885,24.840 183.148 C 25.007 183.556,25.250 184.596,25.382 185.461 C 25.513 186.326,25.772 187.127,25.958 187.242 C 26.144 187.357,26.296 188.034,26.296 188.747 C 26.296 189.517,26.447 189.951,26.667 189.815 C 26.883 189.681,27.037 190.058,27.037 190.719 C 27.037 191.342,27.192 191.852,27.381 191.852 C 27.570 191.852,27.839 192.771,27.980 193.894 C 28.120 195.017,28.382 196.027,28.562 196.138 C 28.742 196.249,28.889 196.747,28.889 197.244 C 28.889 197.741,29.036 198.148,29.217 198.148 C 29.397 198.148,29.658 199.062,29.798 200.179 C 29.938 201.297,30.207 202.306,30.396 202.423 C 30.586 202.541,30.741 203.126,30.741 203.726 C 30.741 204.325,30.899 204.815,31.093 204.815 C 31.286 204.815,31.558 205.815,31.696 207.037 C 31.834 208.259,32.093 209.259,32.270 209.259 C 32.447 209.259,32.593 209.676,32.593 210.185 C 32.593 210.694,32.736 211.111,32.911 211.111 C 33.087 211.111,33.332 211.973,33.457 213.027 C 33.582 214.081,33.855 215.114,34.064 215.323 C 34.273 215.533,34.444 216.170,34.444 216.741 C 34.444 217.311,34.595 217.778,34.780 217.778 C 35.092 217.778,35.791 221.288,35.615 221.972 C 35.572 222.140,35.708 222.172,35.917 222.043 C 36.144 221.902,36.296 222.262,36.296 222.941 C 36.296 223.564,36.435 224.074,36.605 224.074 C 36.876 224.074,37.100 224.910,38.021 229.352 C 38.137 229.912,38.364 230.370,38.524 230.370 C 38.685 230.370,38.932 231.370,39.074 232.593 C 39.216 233.815,39.482 234.815,39.666 234.815 C 39.850 234.815,40.000 235.315,40.000 235.926 C 40.000 236.537,40.155 237.037,40.344 237.037 C 40.533 237.037,40.802 237.956,40.943 239.079 C 41.083 240.202,41.345 241.212,41.525 241.323 C 41.705 241.434,41.852 241.932,41.852 242.429 C 41.852 242.927,41.997 243.333,42.174 243.333 C 42.352 243.333,42.610 244.333,42.748 245.556 C 42.887 246.778,43.158 247.778,43.352 247.778 C 43.545 247.778,43.704 248.278,43.704 248.889 C 43.704 249.500,43.858 250.000,44.047 250.000 C 44.236 250.000,44.506 250.917,44.646 252.037 C 44.786 253.157,45.048 254.074,45.228 254.074 C 45.408 254.074,45.556 254.574,45.556 255.185 C 45.556 255.796,45.694 256.296,45.864 256.296 C 46.034 256.296,46.357 257.171,46.582 258.241 C 47.292 261.616,47.510 262.402,47.792 262.593 C 47.942 262.694,48.177 263.611,48.313 264.630 C 48.450 265.648,48.718 266.640,48.910 266.833 C 49.102 267.027,49.259 267.487,49.259 267.857 C 49.259 268.226,49.419 268.818,49.615 269.172 C 49.935 269.751,50.439 271.712,50.995 274.537 C 51.105 275.097,51.343 275.556,51.524 275.556 C 51.704 275.556,51.851 276.014,51.850 276.574 C 51.848 277.568,52.727 280.654,53.378 281.939 C 53.557 282.293,53.704 282.908,53.704 283.306 C 53.704 283.705,53.859 284.126,54.048 284.243 C 54.238 284.360,54.507 285.370,54.646 286.487 C 54.786 287.604,55.048 288.519,55.228 288.519 C 55.408 288.519,55.556 288.935,55.556 289.444 C 55.556 289.954,55.701 290.370,55.878 290.370 C 56.055 290.370,56.314 291.370,56.452 292.593 C 56.590 293.815,56.862 294.815,57.055 294.815 C 57.249 294.815,57.410 295.440,57.413 296.204 C 57.417 297.197,57.516 297.439,57.760 297.052 C 58.006 296.665,58.175 297.059,58.359 298.450 L 58.616 300.387 59.930 300.299 C 60.702 300.247,61.305 300.396,61.393 300.661 C 61.610 301.312,115.055 301.317,115.272 300.665 C 115.356 300.413,116.027 300.237,116.821 300.259 C 118.119 300.296,118.208 300.233,118.045 299.380 C 117.936 298.808,118.062 298.386,118.379 298.265 C 118.659 298.157,118.890 297.795,118.891 297.460 C 118.892 297.126,119.142 296.374,119.447 295.791 C 119.751 295.208,120.000 294.342,120.000 293.868 C 120.000 293.394,120.150 292.914,120.334 292.800 C 120.518 292.687,120.784 291.593,120.926 290.370 C 121.068 289.147,121.334 288.054,121.518 287.940 C 121.702 287.827,121.852 287.174,121.852 286.490 C 121.852 285.807,122.000 285.191,122.181 285.123 C 122.362 285.056,122.624 284.000,122.763 282.778 C 122.902 281.556,123.170 280.500,123.360 280.432 C 123.549 280.364,123.704 279.739,123.704 279.043 C 123.704 278.347,123.857 277.778,124.045 277.778 C 124.232 277.778,124.502 276.694,124.643 275.370 C 124.785 274.046,125.048 272.963,125.228 272.963 C 125.408 272.963,125.556 272.473,125.556 271.874 C 125.556 271.275,125.705 270.692,125.888 270.579 C 126.071 270.466,126.338 269.207,126.481 267.781 C 126.624 266.355,126.891 265.280,127.074 265.394 C 127.258 265.507,127.407 265.089,127.407 264.466 C 127.407 263.843,127.558 263.333,127.741 263.333 C 127.925 263.333,128.191 262.333,128.333 261.111 C 128.475 259.889,128.742 258.889,128.925 258.889 C 129.109 258.889,129.259 258.306,129.259 257.593 C 129.259 256.880,129.407 256.296,129.586 256.296 C 129.766 256.296,130.030 255.213,130.172 253.889 C 130.313 252.565,130.583 251.481,130.770 251.481 C 130.958 251.481,131.111 250.898,131.111 250.185 C 131.111 249.472,131.278 248.889,131.481 248.889 C 131.685 248.889,131.825 248.764,131.793 248.611 C 131.636 247.878,132.358 243.704,132.640 243.704 C 132.818 243.704,132.963 243.204,132.963 242.593 C 132.963 241.981,133.094 241.481,133.255 241.481 C 133.415 241.481,133.574 241.106,133.609 240.648 C 133.698 239.460,135.392 232.654,135.963 231.190 C 136.145 230.724,136.402 229.390,136.536 228.227 C 136.670 227.063,136.915 226.021,137.081 225.911 C 137.248 225.802,137.425 225.177,137.474 224.522 C 137.524 223.868,137.677 223.333,137.815 223.333 C 137.952 223.333,138.180 222.559,138.322 221.612 C 138.464 220.666,138.713 219.624,138.874 219.297 C 139.436 218.163,139.952 216.099,140.203 213.981 C 140.342 212.810,140.603 211.852,140.783 211.852 C 140.964 211.852,141.111 211.385,141.111 210.815 C 141.111 210.244,141.262 209.619,141.447 209.426 C 141.781 209.076,142.182 206.883,142.208 205.256 C 142.216 204.783,142.388 204.503,142.593 204.630 C 142.816 204.768,142.963 204.273,142.963 203.386 C 142.963 202.576,143.115 201.858,143.300 201.790 C 143.485 201.722,143.750 200.750,143.889 199.630 C 144.027 198.509,144.292 197.537,144.478 197.469 C 144.663 197.401,144.815 196.693,144.815 195.895 C 144.815 195.097,144.973 194.444,145.167 194.444 C 145.360 194.444,145.632 193.444,145.770 192.222 C 145.908 191.000,146.167 190.000,146.344 190.000 C 146.522 190.000,146.667 189.427,146.667 188.726 C 146.667 188.025,146.824 187.354,147.015 187.236 C 147.207 187.117,147.479 185.853,147.620 184.428 C 147.760 183.002,148.020 181.746,148.197 181.637 C 148.374 181.527,148.519 180.864,148.519 180.163 C 148.519 179.462,148.661 178.889,148.836 178.889 C 149.010 178.889,149.267 177.514,149.406 175.833 C 149.545 174.153,149.819 172.722,150.015 172.654 C 150.210 172.586,150.370 171.878,150.370 171.080 C 150.370 170.282,150.517 169.630,150.697 169.630 C 150.877 169.630,151.142 168.213,151.286 166.481 C 151.430 164.750,151.700 163.333,151.885 163.333 C 152.071 163.333,152.222 162.677,152.222 161.874 C 152.222 161.071,152.371 160.322,152.554 160.209 C 152.736 160.096,153.004 158.670,153.148 157.039 C 153.292 155.408,153.560 154.074,153.742 154.074 C 153.925 154.074,154.074 153.417,154.074 152.614 C 154.074 151.812,154.219 151.065,154.396 150.956 C 154.573 150.847,154.834 149.420,154.977 147.786 C 155.119 146.152,155.380 144.815,155.556 144.815 C 155.733 144.815,155.929 144.356,155.994 143.796 C 156.133 142.586,156.800 142.576,156.976 143.782 C 157.044 144.248,157.252 144.788,157.439 144.981 C 157.625 145.175,157.778 146.106,157.778 147.049 C 157.778 147.993,157.903 148.889,158.056 149.041 C 158.308 149.291,158.878 152.506,159.491 157.130 C 159.619 158.097,159.869 158.889,160.047 158.889 C 160.225 158.889,160.370 159.722,160.370 160.741 C 160.370 161.759,160.517 162.593,160.697 162.593 C 160.985 162.593,161.729 168.597,161.538 169.379 C 161.497 169.547,161.634 169.579,161.843 169.450 C 162.081 169.303,162.222 169.845,162.222 170.904 C 162.222 171.833,162.365 172.593,162.539 172.593 C 162.714 172.593,162.971 173.967,163.111 175.646 C 163.251 177.325,163.525 178.858,163.720 179.053 C 163.915 179.248,164.074 180.291,164.074 181.370 C 164.074 182.450,164.224 183.333,164.407 183.333 C 164.590 183.333,164.857 184.501,165.000 185.927 C 165.143 187.354,165.410 188.614,165.593 188.727 C 165.776 188.840,165.926 189.423,165.926 190.022 C 165.926 190.621,166.073 191.111,166.253 191.111 C 166.433 191.111,166.696 192.194,166.838 193.519 C 166.980 194.843,167.249 195.926,167.437 195.926 C 167.624 195.926,167.778 196.509,167.778 197.222 C 167.778 197.935,167.925 198.519,168.105 198.519 C 168.285 198.519,168.548 199.602,168.690 200.926 C 168.832 202.250,169.101 203.333,169.289 203.333 C 169.476 203.333,169.630 203.833,169.630 204.444 C 169.630 205.056,169.780 205.556,169.964 205.556 C 170.147 205.556,170.414 206.556,170.556 207.778 C 170.698 209.001,170.964 210.094,171.148 210.208 C 171.331 210.321,171.481 210.988,171.481 211.689 C 171.481 212.389,171.627 212.963,171.804 212.963 C 171.981 212.963,172.240 213.963,172.378 215.185 C 172.516 216.407,172.788 217.407,172.981 217.407 C 173.175 217.407,173.333 218.060,173.333 218.858 C 173.333 219.656,173.485 220.364,173.670 220.432 C 173.856 220.500,174.121 221.472,174.259 222.593 C 174.398 223.713,174.663 224.685,174.848 224.753 C 175.034 224.821,175.185 225.515,175.185 226.296 C 175.185 227.077,175.337 227.772,175.522 227.840 C 175.708 227.907,175.971 228.880,176.108 230.000 C 176.245 231.120,176.510 232.195,176.697 232.389 C 176.884 232.582,177.037 233.207,177.037 233.778 C 177.037 234.348,177.184 234.815,177.365 234.815 C 177.545 234.815,177.806 235.773,177.945 236.944 C 178.199 239.084,178.715 241.137,179.288 242.282 C 179.457 242.621,179.709 243.750,179.847 244.791 C 179.985 245.832,180.242 246.773,180.419 246.882 C 180.596 246.991,180.741 247.654,180.741 248.355 C 180.741 249.056,180.876 249.630,181.041 249.630 C 181.206 249.630,181.526 250.588,181.754 251.759 C 182.393 255.055,182.625 256.050,182.939 256.852 C 183.413 258.061,184.451 262.711,184.448 263.611 C 184.446 264.069,184.573 264.444,184.730 264.444 C 185.016 264.444,185.840 267.845,186.189 270.463 C 186.291 271.227,186.523 271.852,186.706 271.852 C 186.888 271.852,187.037 272.445,187.037 273.170 C 187.037 273.895,187.187 274.396,187.370 274.282 C 187.553 274.169,187.820 275.243,187.963 276.668 C 188.106 278.093,188.373 279.259,188.556 279.259 C 188.739 279.259,188.889 279.843,188.889 280.556 C 188.889 281.269,189.042 281.852,189.230 281.852 C 189.417 281.852,189.687 282.935,189.828 284.259 C 189.970 285.583,190.234 286.667,190.414 286.667 C 190.593 286.667,190.741 287.083,190.741 287.593 C 190.741 288.102,190.888 288.519,191.068 288.519 C 191.248 288.519,191.511 289.600,191.653 290.922 C 191.794 292.244,192.064 293.420,192.251 293.536 C 192.439 293.652,192.593 294.073,192.593 294.471 C 192.593 294.869,192.759 295.485,192.962 295.838 C 193.166 296.192,193.460 297.315,193.617 298.333 C 193.896 300.145,193.932 300.188,195.284 300.300 C 196.045 300.363,196.667 300.572,196.667 300.763 C 196.667 301.330,251.752 301.224,251.941 300.657 C 252.028 300.398,252.598 300.241,253.269 300.293 C 254.349 300.375,254.444 300.292,254.444 299.265 C 254.444 298.651,254.611 298.148,254.815 298.148 C 255.019 298.148,255.185 297.805,255.185 297.386 C 255.185 296.966,255.336 296.716,255.519 296.829 C 255.703 296.943,255.969 296.036,256.111 294.814 C 256.253 293.591,256.519 292.498,256.703 292.385 C 256.887 292.271,257.037 291.772,257.037 291.274 C 257.037 290.777,257.192 290.370,257.381 290.370 C 257.570 290.370,257.839 289.452,257.980 288.328 C 258.120 287.205,258.382 286.196,258.562 286.084 C 258.742 285.973,258.889 285.392,258.889 284.793 C 258.889 284.194,259.040 283.704,259.225 283.704 C 259.409 283.704,259.675 282.870,259.815 281.852 C 259.955 280.833,260.185 280.000,260.326 280.000 C 260.468 280.000,260.624 279.458,260.674 278.796 C 260.724 278.134,260.919 277.539,261.107 277.474 C 261.296 277.409,261.562 276.368,261.699 275.159 C 261.836 273.951,262.093 272.963,262.270 272.963 C 262.447 272.963,262.593 272.556,262.593 272.059 C 262.593 271.562,262.748 271.059,262.937 270.942 C 263.126 270.825,263.395 269.817,263.535 268.702 C 263.674 267.587,263.901 266.745,264.039 266.830 C 264.178 266.916,264.331 266.456,264.379 265.808 C 264.428 265.160,264.622 264.576,264.811 264.511 C 265.000 264.446,265.266 263.405,265.403 262.197 C 265.539 260.988,265.796 260.000,265.974 260.000 C 266.151 260.000,266.296 259.593,266.296 259.096 C 266.296 258.599,266.463 258.089,266.667 257.963 C 266.870 257.837,267.037 257.254,267.037 256.667 C 267.037 256.080,267.199 255.499,267.397 255.377 C 267.594 255.255,267.866 254.328,268.000 253.318 C 268.134 252.308,268.389 251.481,268.566 251.481 C 268.744 251.481,268.889 250.898,268.889 250.185 C 268.889 249.472,269.044 248.889,269.233 248.889 C 269.422 248.889,269.691 247.974,269.830 246.856 C 269.970 245.738,270.232 244.914,270.413 245.026 C 270.593 245.138,270.741 244.646,270.741 243.933 C 270.741 243.220,270.903 242.536,271.100 242.414 C 271.298 242.292,271.570 241.365,271.704 240.355 C 271.838 239.345,272.092 238.519,272.270 238.519 C 272.447 238.519,272.593 238.112,272.593 237.614 C 272.593 237.117,272.740 236.619,272.920 236.508 C 273.100 236.397,273.362 235.387,273.502 234.264 C 273.642 233.141,273.912 232.222,274.101 232.222 C 274.290 232.222,274.444 231.833,274.444 231.358 C 274.444 230.883,274.569 230.369,274.722 230.217 C 274.965 229.975,275.201 229.018,276.169 224.352 C 276.285 223.792,276.509 223.333,276.666 223.333 C 276.823 223.333,277.066 222.417,277.206 221.296 C 277.346 220.176,277.615 219.259,277.804 219.259 C 277.993 219.259,278.148 218.759,278.148 218.148 C 278.148 217.537,278.302 217.037,278.489 217.037 C 278.677 217.037,278.946 215.954,279.088 214.630 C 279.230 213.306,279.493 212.222,279.673 212.222 C 279.853 212.222,280.000 211.806,280.000 211.296 C 280.000 210.787,280.155 210.370,280.344 210.370 C 280.533 210.370,280.802 209.452,280.943 208.328 C 281.083 207.205,281.345 206.196,281.525 206.084 C 281.705 205.973,281.852 205.382,281.852 204.771 C 281.852 204.160,282.000 203.751,282.180 203.863 C 282.361 203.974,282.623 203.151,282.762 202.033 C 282.902 200.915,283.171 200.000,283.360 200.000 C 283.549 200.000,283.704 199.417,283.704 198.704 C 283.704 197.991,283.862 197.407,284.056 197.407 C 284.249 197.407,284.521 196.407,284.659 195.185 C 284.797 193.963,285.056 192.963,285.233 192.963 C 285.410 192.963,285.556 192.546,285.556 192.037 C 285.556 191.528,285.722 191.111,285.926 191.111 C 286.130 191.111,286.270 190.986,286.239 190.833 C 286.094 190.132,286.798 186.667,287.085 186.667 C 287.262 186.667,287.407 186.167,287.407 185.556 C 287.407 184.944,287.566 184.444,287.759 184.444 C 287.953 184.444,288.225 183.444,288.363 182.222 C 288.501 181.000,288.759 180.000,288.937 180.000 C 289.114 180.000,289.259 179.583,289.259 179.074 C 289.259 178.565,289.404 178.148,289.582 178.148 C 289.759 178.148,290.017 177.148,290.156 175.926 C 290.294 174.704,290.566 173.704,290.759 173.704 C 290.953 173.704,291.111 173.204,291.111 172.593 C 291.111 171.981,291.256 171.481,291.434 171.481 C 291.611 171.481,291.869 170.481,292.008 169.259 C 292.146 168.037,292.417 167.037,292.611 167.037 C 292.805 167.037,292.963 166.527,292.963 165.904 C 292.963 165.243,293.117 164.866,293.333 165.000 C 293.553 165.136,293.704 164.702,293.704 163.933 C 293.704 163.220,293.866 162.536,294.063 162.414 C 294.261 162.292,294.533 161.365,294.667 160.355 C 294.801 159.345,295.037 158.519,295.191 158.519 C 295.345 158.519,295.567 158.060,295.683 157.500 C 296.604 153.058,296.828 152.222,297.099 152.222 C 297.269 152.222,297.407 151.639,297.407 150.926 C 297.407 150.213,297.566 149.630,297.759 149.630 C 297.953 149.630,298.225 148.630,298.363 147.407 C 298.501 146.185,298.740 145.185,298.895 145.185 C 299.049 145.185,299.267 144.727,299.379 144.167 C 299.826 141.929,300.571 139.305,300.834 139.043 C 300.986 138.890,301.111 138.327,301.111 137.790 C 301.111 137.254,301.282 136.644,301.491 136.435 C 301.700 136.225,301.974 135.192,302.098 134.138 C 302.223 133.084,302.469 132.222,302.644 132.222 C 302.820 132.222,302.963 131.815,302.963 131.318 C 302.963 130.821,303.114 130.321,303.299 130.207 C 303.483 130.093,303.749 129.166,303.889 128.148 C 304.029 127.130,304.295 126.204,304.479 126.090 C 304.664 125.976,304.815 125.402,304.815 124.815 C 304.815 124.228,304.970 123.652,305.159 123.535 C 305.349 123.417,305.618 122.408,305.757 121.290 C 305.897 120.173,306.159 119.259,306.339 119.259 C 306.519 119.259,306.667 118.769,306.667 118.170 C 306.667 117.571,306.818 116.987,307.002 116.873 C 307.187 116.759,307.453 115.833,307.593 114.814 C 307.733 113.796,307.998 112.963,308.183 112.963 C 308.367 112.963,308.519 112.496,308.519 111.926 C 308.519 111.356,308.684 110.724,308.885 110.522 C 309.087 110.320,309.363 109.329,309.498 108.318 C 309.633 107.308,309.868 106.398,310.019 106.296 C 310.171 106.194,310.353 105.611,310.424 105.000 C 310.495 104.389,310.682 103.794,310.840 103.677 C 310.998 103.561,311.230 102.357,311.357 101.002 C 311.483 99.648,311.730 98.628,311.904 98.736 C 312.079 98.844,312.222 98.599,312.222 98.192 C 312.222 97.784,312.389 97.348,312.593 97.222 C 313.524 96.646,312.988 95.185,311.845 95.185 C 310.820 95.185,310.745 95.270,310.942 96.204 C 311.122 97.053,311.089 97.114,310.746 96.574 C 310.519 96.218,310.092 95.926,309.796 95.926 C 309.501 95.926,309.259 95.759,309.259 95.556 C 309.259 94.961,262.337 95.053,262.097 95.648 C 261.948 96.019,261.904 96.019,261.881 95.648 C 261.775 93.975,259.630 95.504,259.630 97.253 C 259.630 97.745,259.482 98.148,259.301 98.148 C 258.953 98.148,258.731 99.040,258.079 103.056 C 257.856 104.431,257.530 105.556,257.355 105.556 C 257.180 105.556,257.037 106.022,257.037 106.593 C 257.037 107.163,256.886 107.788,256.701 107.981 C 256.367 108.332,255.967 110.524,255.940 112.151 C 255.932 112.625,255.761 112.904,255.556 112.778 C 255.332 112.640,255.185 113.134,255.185 114.021 C 255.185 114.831,255.034 115.549,254.848 115.617 C 254.663 115.685,254.398 116.657,254.259 117.778 C 254.121 118.898,253.856 119.870,253.670 119.938 C 253.485 120.006,253.333 120.715,253.333 121.512 C 253.333 122.310,253.175 122.963,252.981 122.963 C 252.788 122.963,252.516 123.963,252.378 125.185 C 252.240 126.407,251.981 127.407,251.804 127.407 C 251.627 127.407,251.481 127.981,251.481 128.682 C 251.481 129.383,251.335 130.047,251.155 130.158 C 250.976 130.269,250.711 131.612,250.568 133.143 C 250.425 134.674,250.155 135.926,249.968 135.926 C 249.782 135.926,249.630 136.426,249.630 137.037 C 249.630 137.648,249.473 138.148,249.282 138.148 C 249.090 138.148,248.819 139.315,248.678 140.741 C 248.538 142.167,248.278 143.333,248.100 143.333 C 247.923 143.333,247.778 143.927,247.778 144.651 C 247.778 145.436,247.628 145.877,247.407 145.741 C 247.202 145.614,247.031 145.894,247.023 146.367 C 246.995 148.062,246.582 150.188,246.258 150.309 C 246.075 150.377,245.926 151.095,245.926 151.905 C 245.926 152.792,245.779 153.286,245.556 153.148 C 245.351 153.021,245.179 153.301,245.171 153.774 C 245.143 155.469,244.731 157.595,244.406 157.716 C 244.223 157.784,244.074 158.409,244.074 159.105 C 244.074 159.801,243.927 160.370,243.747 160.370 C 243.567 160.370,243.304 161.454,243.162 162.778 C 243.020 164.102,242.751 165.185,242.563 165.185 C 242.376 165.185,242.222 165.769,242.222 166.481 C 242.222 167.194,242.070 167.778,241.883 167.778 C 241.697 167.778,241.428 169.028,241.284 170.556 C 241.141 172.083,240.877 173.333,240.697 173.333 C 240.517 173.333,240.370 173.917,240.370 174.630 C 240.370 175.343,240.226 175.926,240.049 175.926 C 239.872 175.926,239.619 176.551,239.488 177.315 C 238.713 181.806,238.293 183.725,238.121 183.553 C 238.015 183.447,237.886 183.974,237.836 184.724 C 237.785 185.474,237.626 186.177,237.483 186.285 C 237.159 186.529,237.002 187.157,236.760 189.167 C 236.656 190.032,236.425 190.741,236.248 190.741 C 236.071 190.741,235.926 191.407,235.926 192.222 C 235.926 193.037,235.768 193.704,235.574 193.704 C 235.380 193.704,235.109 194.704,234.971 195.926 C 234.832 197.148,234.574 198.148,234.397 198.148 C 234.219 198.148,234.074 198.722,234.074 199.423 C 234.074 200.124,233.915 200.795,233.721 200.915 C 233.527 201.035,233.255 202.129,233.117 203.345 C 232.980 204.561,232.722 205.556,232.545 205.556 C 232.367 205.556,232.222 206.129,232.222 206.830 C 232.222 207.531,232.075 208.195,231.896 208.306 C 231.717 208.417,231.452 209.927,231.307 211.661 C 231.163 213.396,230.910 214.815,230.745 214.815 C 230.426 214.815,230.269 215.745,229.572 221.759 C 229.330 223.847,228.994 225.556,228.825 225.556 C 228.656 225.556,228.519 226.222,228.519 227.037 C 228.519 227.852,228.373 228.519,228.196 228.519 C 228.018 228.519,227.756 230.019,227.613 231.852 C 227.469 233.685,227.198 235.185,227.009 235.185 C 226.821 235.185,226.667 236.009,226.667 237.015 C 226.667 238.022,226.518 238.937,226.336 239.050 C 226.154 239.162,225.886 240.755,225.741 242.590 C 225.596 244.425,225.343 245.926,225.180 245.926 C 225.017 245.926,224.792 246.801,224.681 247.870 C 224.202 252.463,223.562 256.296,223.274 256.296 C 223.103 256.296,222.963 256.703,222.963 257.200 C 222.963 258.319,222.292 258.806,222.007 257.894 C 221.892 257.524,221.643 256.933,221.454 256.579 C 221.266 256.225,221.111 255.277,221.111 254.471 C 221.111 253.666,220.956 252.911,220.766 252.793 C 220.576 252.676,220.304 251.249,220.162 249.623 C 220.007 247.846,219.739 246.664,219.489 246.661 C 219.261 246.658,219.324 246.494,219.630 246.296 C 220.000 246.057,220.031 245.935,219.722 245.932 C 219.414 245.928,219.259 245.306,219.259 244.074 C 219.259 243.056,219.110 242.222,218.927 242.222 C 218.655 242.222,218.438 240.758,217.986 235.864 C 217.973 235.728,217.838 235.492,217.685 235.340 C 217.532 235.187,217.407 234.423,217.407 233.642 C 217.407 232.861,217.265 232.222,217.090 232.222 C 216.916 232.222,216.660 230.867,216.522 229.211 C 216.384 227.555,216.110 225.899,215.913 225.532 C 215.717 225.164,215.556 224.186,215.556 223.358 C 215.556 222.529,215.413 221.852,215.240 221.852 C 215.066 221.852,214.820 220.623,214.693 219.121 C 214.566 217.619,214.291 215.942,214.083 215.393 C 213.874 214.845,213.704 213.740,213.704 212.939 C 213.704 212.137,213.537 211.481,213.333 211.481 C 213.130 211.481,212.963 210.843,212.963 210.062 C 212.963 209.281,212.838 208.517,212.686 208.365 C 212.442 208.121,211.930 205.843,211.242 201.944 C 211.126 201.282,210.903 200.741,210.748 200.741 C 210.593 200.741,210.353 199.746,210.216 198.530 C 210.078 197.314,209.807 196.221,209.613 196.101 C 209.418 195.980,209.259 195.309,209.259 194.608 C 209.259 193.907,209.114 193.333,208.937 193.333 C 208.759 193.333,208.501 192.333,208.363 191.111 C 208.225 189.889,207.987 188.889,207.835 188.889 C 207.683 188.889,207.517 188.272,207.466 187.518 C 207.416 186.764,207.234 185.972,207.062 185.759 C 206.890 185.545,206.632 184.495,206.488 183.426 C 206.344 182.356,206.110 181.481,205.967 181.481 C 205.824 181.481,205.665 180.862,205.614 180.104 C 205.563 179.346,205.396 178.638,205.243 178.530 C 205.090 178.422,204.759 177.250,204.508 175.926 C 203.738 171.865,203.430 170.540,203.344 170.926 C 203.259 171.312,202.341 167.136,201.981 164.722 C 201.867 163.958,201.641 163.333,201.479 163.333 C 201.317 163.333,201.068 162.333,200.926 161.110 C 200.784 159.888,200.518 158.795,200.334 158.681 C 200.150 158.568,200.000 157.901,200.000 157.200 C 200.000 156.499,199.855 155.926,199.677 155.926 C 199.500 155.926,199.242 154.931,199.105 153.715 C 198.967 152.499,198.696 151.406,198.501 151.286 C 198.307 151.166,198.148 150.494,198.148 149.793 C 198.148 149.092,198.003 148.519,197.826 148.519 C 197.648 148.519,197.390 147.519,197.252 146.296 C 197.113 145.074,196.842 144.074,196.648 144.074 C 196.455 144.074,196.296 143.421,196.296 142.623 C 196.296 141.826,196.145 141.117,195.959 141.049 C 195.774 140.981,195.509 140.009,195.370 138.889 C 195.232 137.769,194.967 136.796,194.781 136.728 C 194.596 136.660,194.444 135.942,194.444 135.132 C 194.444 134.323,194.299 133.750,194.121 133.860 C 193.943 133.970,193.684 133.188,193.546 132.123 C 193.282 130.084,192.720 127.726,192.203 126.481 C 192.034 126.074,191.793 125.157,191.668 124.444 C 191.251 122.056,190.604 119.448,190.336 119.074 C 190.191 118.870,189.953 117.743,189.807 116.569 C 189.662 115.395,189.396 114.344,189.216 114.233 C 189.036 114.121,188.889 113.621,188.889 113.121 C 188.889 112.621,188.740 111.923,188.558 111.569 C 188.376 111.215,188.037 110.009,187.806 108.889 C 187.575 107.769,187.212 106.185,186.999 105.370 C 186.787 104.556,186.524 103.347,186.414 102.685 C 186.305 102.023,186.088 101.481,185.933 101.481 C 185.778 101.481,185.540 100.648,185.405 99.630 C 185.270 98.611,184.999 97.778,184.802 97.778 C 184.605 97.778,184.444 97.194,184.444 96.481 C 184.444 95.432,184.303 95.185,183.704 95.185 C 183.296 95.185,182.963 95.352,182.963 95.556 C 182.963 95.759,182.713 95.926,182.407 95.926 C 182.102 95.926,181.852 95.759,181.852 95.556 C 181.852 95.312,173.272 95.185,156.852 95.185 C 140.432 95.185,131.852 95.312,131.852 95.556 C 131.852 95.759,131.602 95.926,131.296 95.926 C 130.991 95.926,130.741 95.759,130.741 95.556 C 130.741 95.352,130.407 95.185,130.000 95.185 C 129.292 95.185,129.041 95.901,129.240 97.352 C 129.278 97.627,129.131 97.742,128.914 97.608 C 128.692 97.471,128.506 97.657,128.491 98.034 C 128.435 99.395,128.117 100.559,127.767 100.679 C 127.569 100.747,127.407 101.362,127.407 102.046 C 127.407 102.730,127.257 103.382,127.073 103.496 C 126.890 103.610,126.623 104.703,126.482 105.925 C 126.340 107.148,126.073 108.148,125.890 108.148 C 125.706 108.148,125.556 108.722,125.556 109.423 C 125.556 110.124,125.402 110.792,125.214 110.908 C 125.027 111.024,124.757 112.200,124.616 113.522 C 124.474 114.844,124.211 115.926,124.031 115.926 C 123.851 115.926,123.704 116.416,123.704 117.015 C 123.704 117.614,123.547 118.201,123.355 118.320 C 123.163 118.439,122.892 119.695,122.752 121.112 C 122.613 122.530,122.353 123.599,122.175 123.489 C 121.997 123.380,121.852 123.790,121.852 124.401 C 121.852 125.012,121.702 125.605,121.518 125.718 C 121.334 125.832,121.068 126.925,120.926 128.148 C 120.784 129.371,120.518 130.465,120.334 130.578 C 120.150 130.692,120.000 131.265,120.000 131.852 C 120.000 132.439,119.846 133.014,119.659 133.130 C 119.471 133.246,119.202 134.423,119.060 135.745 C 118.918 137.067,118.655 138.148,118.475 138.148 C 118.295 138.148,118.148 138.731,118.148 139.444 C 118.148 140.157,117.995 140.741,117.807 140.741 C 117.620 140.741,117.350 141.824,117.209 143.148 C 117.067 144.472,116.803 145.556,116.624 145.556 C 116.444 145.556,116.296 146.046,116.296 146.645 C 116.296 147.244,116.143 147.829,115.955 147.945 C 115.767 148.061,115.498 149.240,115.356 150.565 C 115.214 151.889,114.951 153.064,114.771 153.175 C 114.591 153.286,114.444 153.774,114.444 154.259 C 114.444 154.744,114.297 155.232,114.118 155.343 C 113.938 155.454,113.675 156.629,113.533 157.954 C 113.391 159.279,113.122 160.457,112.934 160.574 C 112.746 160.690,112.593 161.275,112.593 161.874 C 112.593 162.473,112.443 162.963,112.260 162.963 C 112.077 162.963,111.810 164.130,111.667 165.557 C 111.523 166.984,111.256 168.244,111.073 168.357 C 110.890 168.470,110.741 168.969,110.741 169.466 C 110.741 169.964,110.587 170.370,110.400 170.370 C 110.212 170.370,109.943 171.456,109.801 172.783 C 109.658 174.110,109.395 175.286,109.216 175.397 C 109.036 175.508,108.889 176.183,108.889 176.896 C 108.889 177.665,108.738 178.099,108.519 177.963 C 108.314 177.836,108.142 178.116,108.134 178.589 C 108.106 180.284,107.694 182.410,107.369 182.531 C 107.186 182.599,107.037 183.317,107.037 184.127 C 107.037 185.014,106.890 185.508,106.667 185.370 C 106.444 185.233,106.296 185.712,106.296 186.571 C 106.296 187.357,106.125 188.171,105.916 188.380 C 105.707 188.589,105.434 189.623,105.309 190.677 C 105.184 191.730,104.939 192.593,104.763 192.593 C 104.588 192.593,104.444 193.072,104.444 193.657 C 104.444 194.243,104.194 195.430,103.889 196.296 C 103.583 197.162,103.333 198.350,103.333 198.935 C 103.333 199.521,103.167 200.000,102.963 200.000 C 102.759 200.000,102.593 200.573,102.593 201.274 C 102.593 201.975,102.442 202.642,102.259 202.755 C 102.075 202.869,101.809 203.962,101.667 205.185 C 101.525 206.407,101.258 207.407,101.075 207.407 C 100.891 207.407,100.741 207.981,100.741 208.682 C 100.741 209.383,100.594 210.047,100.415 210.158 C 100.235 210.269,99.970 211.778,99.826 213.512 C 99.682 215.245,99.412 216.758,99.226 216.872 C 99.041 216.987,98.889 217.793,98.889 218.664 C 98.889 219.535,98.773 220.363,98.631 220.505 C 98.308 220.828,98.214 221.381,97.912 224.722 C 97.778 226.199,97.527 227.407,97.353 227.407 C 97.179 227.407,97.037 228.207,97.037 229.185 C 97.037 230.163,96.878 231.122,96.683 231.317 C 96.488 231.512,96.214 233.045,96.074 234.725 C 95.934 236.404,95.677 237.778,95.502 237.778 C 95.328 237.778,95.205 237.903,95.229 238.056 C 95.419 239.256,95.120 241.856,94.815 241.667 C 94.603 241.535,94.438 241.882,94.429 242.478 C 94.397 244.661,93.980 247.989,93.663 248.587 C 93.482 248.930,93.333 249.722,93.333 250.346 C 93.333 250.971,93.191 251.481,93.016 251.481 C 92.842 251.481,92.585 252.856,92.446 254.537 C 92.306 256.218,92.032 257.648,91.837 257.716 C 91.641 257.784,91.481 258.076,91.481 258.364 C 91.481 258.653,91.337 258.889,91.160 258.889 C 90.787 258.889,90.380 256.733,90.374 254.722 C 90.372 253.958,90.204 253.333,90.000 253.333 C 89.796 253.333,89.617 252.295,89.600 251.019 C 89.584 249.745,89.465 248.954,89.336 249.259 C 89.130 249.744,88.603 245.856,87.919 238.796 C 87.805 237.625,87.578 236.667,87.414 236.667 C 87.251 236.667,86.998 235.000,86.852 232.963 C 86.706 230.926,86.467 229.259,86.320 229.259 C 86.173 229.259,86.014 228.305,85.967 227.138 C 85.920 225.971,85.748 224.929,85.586 224.823 C 85.423 224.717,85.172 222.963,85.027 220.926 C 84.882 218.889,84.608 217.064,84.419 216.870 C 84.229 216.677,84.074 215.552,84.074 214.370 C 84.074 213.185,83.908 212.222,83.704 212.222 C 83.500 212.222,83.333 211.582,83.333 210.800 C 83.333 210.017,83.085 208.559,82.782 207.559 C 82.478 206.559,82.228 205.282,82.226 204.722 C 82.224 204.162,82.056 203.704,81.852 203.704 C 81.648 203.704,81.474 203.162,81.465 202.500 C 81.456 201.838,81.209 200.630,80.915 199.815 C 80.622 199.000,80.379 197.875,80.376 197.315 C 80.373 196.755,80.204 196.296,80.000 196.296 C 79.796 196.296,79.630 195.713,79.630 195.000 C 79.630 194.287,79.476 193.704,79.289 193.704 C 79.101 193.704,78.832 192.620,78.690 191.296 C 78.548 189.972,78.285 188.889,78.105 188.889 C 77.925 188.889,77.778 188.319,77.778 187.623 C 77.778 186.927,77.613 186.302,77.411 186.235 C 77.209 186.167,76.936 185.074,76.804 183.806 C 76.671 182.539,76.420 181.590,76.245 181.699 C 76.069 181.807,75.926 181.233,75.926 180.423 C 75.926 179.613,75.777 178.895,75.595 178.827 C 75.316 178.724,74.778 176.120,74.711 174.553 C 74.700 174.308,74.552 174.192,74.383 174.297 C 74.213 174.402,74.074 173.905,74.074 173.192 C 74.074 172.479,73.927 171.805,73.747 171.694 C 73.568 171.583,73.304 170.406,73.162 169.079 C 73.020 167.752,72.751 166.667,72.563 166.667 C 72.376 166.667,72.222 166.167,72.222 165.556 C 72.222 164.944,72.072 164.444,71.889 164.444 C 71.706 164.444,71.439 163.277,71.296 161.850 C 71.153 160.424,70.886 159.164,70.703 159.051 C 70.520 158.938,70.370 158.448,70.370 157.963 C 70.370 157.478,70.217 156.986,70.029 156.870 C 69.841 156.754,69.572 155.575,69.430 154.250 C 69.288 152.925,69.025 151.751,68.845 151.640 C 68.666 151.529,68.519 151.041,68.519 150.556 C 68.519 150.070,68.372 149.582,68.192 149.471 C 68.012 149.360,67.749 148.184,67.607 146.857 C 67.465 145.530,67.195 144.444,67.008 144.444 C 66.820 144.444,66.667 143.978,66.667 143.407 C 66.667 142.837,66.511 142.212,66.322 142.019 C 66.132 141.825,65.863 140.667,65.725 139.444 C 65.586 138.222,65.325 137.167,65.144 137.099 C 64.963 137.031,64.815 136.416,64.815 135.732 C 64.815 135.048,64.665 134.395,64.481 134.282 C 64.297 134.168,64.031 133.075,63.889 131.852 C 63.747 130.629,63.481 129.535,63.297 129.422 C 63.113 129.308,62.963 128.753,62.963 128.188 C 62.963 127.623,62.838 127.036,62.685 126.884 C 62.428 126.628,61.724 123.688,61.236 120.836 C 61.123 120.176,60.882 119.727,60.701 119.840 C 60.519 119.952,60.366 119.492,60.362 118.818 C 60.357 118.144,60.178 116.926,59.965 116.111 C 59.752 115.296,59.493 114.213,59.389 113.704 C 59.284 113.194,59.099 112.528,58.976 112.222 C 58.664 111.444,57.771 107.497,57.530 105.833 C 57.420 105.069,57.180 104.444,56.998 104.444 C 56.816 104.444,56.667 104.080,56.667 103.635 C 56.667 102.411,55.503 98.519,55.136 98.519 C 54.960 98.519,54.815 98.282,54.815 97.994 C 54.815 97.705,54.606 97.385,54.352 97.281 C 53.997 97.137,54.011 97.008,54.412 96.728 C 54.854 96.420,54.834 96.263,54.286 95.714 C 53.740 95.169,53.584 95.149,53.311 95.588 C 53.045 96.015,52.849 96.026,52.239 95.648 C 51.344 95.094,3.333 94.961,3.333 95.512 C 3.333 95.692,3.000 95.927,2.593 96.033 C 2.111 96.159,1.852 96.045,1.852 95.706 C 1.852 95.391,1.469 95.185,0.885 95.185 C -0.032 95.185,-0.069 95.257,0.178 96.573 " stroke="none" fill="#040404" fill-rule="evenodd"></path><path id="path1" d="M1.852 95.706 C 1.852 96.045,2.111 96.159,2.593 96.033 C 3.000 95.927,3.333 95.692,3.333 95.512 C 3.333 95.332,3.000 95.185,2.593 95.185 C 2.185 95.185,1.852 95.420,1.852 95.706 M52.037 95.556 C 52.163 95.759,52.506 95.926,52.800 95.926 C 53.093 95.926,53.333 95.759,53.333 95.556 C 53.333 95.352,52.990 95.185,52.571 95.185 C 52.151 95.185,51.911 95.352,52.037 95.556 M130.741 95.556 C 130.741 95.759,130.991 95.926,131.296 95.926 C 131.602 95.926,131.852 95.759,131.852 95.556 C 131.852 95.352,131.602 95.185,131.296 95.185 C 130.991 95.185,130.741 95.352,130.741 95.556 M181.852 95.556 C 181.852 95.759,182.102 95.926,182.407 95.926 C 182.713 95.926,182.963 95.759,182.963 95.556 C 182.963 95.352,182.713 95.185,182.407 95.185 C 182.102 95.185,181.852 95.352,181.852 95.556 M309.259 95.556 C 309.259 95.759,309.501 95.926,309.796 95.926 C 310.092 95.926,310.503 96.218,310.711 96.574 C 311.123 97.282,311.247 96.712,310.886 95.771 C 310.642 95.135,309.259 94.951,309.259 95.556 M311.481 99.237 C 311.481 99.657,311.648 100.000,311.852 100.000 C 312.056 100.000,312.222 99.760,312.222 99.466 C 312.222 99.173,312.056 98.830,311.852 98.704 C 311.648 98.578,311.481 98.818,311.481 99.237 M365.556 239.259 C 365.556 239.468,364.506 239.630,363.148 239.630 C 361.824 239.630,360.741 239.781,360.741 239.965 C 360.741 240.150,359.907 240.415,358.889 240.556 C 357.870 240.696,357.037 240.961,357.037 241.146 C 357.037 241.330,356.620 241.481,356.111 241.481 C 355.602 241.481,355.185 241.627,355.185 241.806 C 355.185 241.984,354.663 242.234,354.024 242.362 C 353.386 242.489,352.594 242.903,352.265 243.281 C 351.936 243.659,351.292 244.087,350.833 244.231 C 350.375 244.376,350.000 244.650,350.000 244.840 C 350.000 245.030,349.811 245.185,349.581 245.185 C 349.350 245.185,348.611 245.769,347.939 246.481 C 347.267 247.194,346.579 247.778,346.410 247.778 C 346.000 247.778,344.074 249.579,344.074 249.963 C 344.074 250.130,343.491 250.885,342.778 251.641 C 342.065 252.397,341.481 253.214,341.481 253.456 C 341.481 253.698,341.163 254.095,340.774 254.338 C 340.385 254.581,339.955 255.287,339.819 255.908 C 339.682 256.529,339.458 257.037,339.320 257.037 C 338.948 257.037,338.141 259.015,337.896 260.528 C 337.778 261.256,337.536 261.852,337.359 261.852 C 337.182 261.852,337.037 262.319,337.037 262.889 C 337.037 263.459,336.831 264.132,336.578 264.385 C 335.943 265.020,335.962 280.184,336.599 280.821 C 336.840 281.062,337.037 281.643,337.037 282.111 C 337.037 282.580,337.188 282.963,337.373 282.963 C 337.557 282.963,337.823 283.796,337.963 284.815 C 338.103 285.833,338.369 286.667,338.553 286.667 C 338.738 286.667,338.889 287.000,338.889 287.407 C 338.889 287.815,339.042 288.148,339.230 288.148 C 339.417 288.148,339.673 288.616,339.799 289.187 C 339.925 289.759,340.354 290.462,340.754 290.751 C 341.154 291.039,341.481 291.480,341.481 291.732 C 341.481 291.983,341.898 292.605,342.407 293.114 C 342.917 293.624,343.333 294.187,343.333 294.366 C 343.333 294.706,345.396 296.667,345.753 296.667 C 346.025 296.667,346.909 297.402,347.870 298.426 C 348.300 298.884,348.877 299.259,349.152 299.259 C 349.428 299.259,349.749 299.509,349.866 299.815 C 349.983 300.120,350.395 300.370,350.780 300.370 C 351.166 300.370,351.481 300.524,351.481 300.711 C 351.481 300.899,351.981 301.162,352.593 301.296 C 353.204 301.431,353.704 301.694,353.704 301.881 C 353.704 302.069,354.037 302.222,354.444 302.222 C 354.852 302.222,355.185 302.381,355.185 302.576 C 355.185 302.770,355.810 303.044,356.574 303.185 C 357.338 303.325,358.082 303.624,358.227 303.850 C 358.602 304.431,378.071 304.423,378.439 303.842 C 378.585 303.612,379.412 303.306,380.278 303.161 C 381.144 303.016,381.852 302.746,381.852 302.560 C 381.852 302.374,382.269 302.222,382.778 302.222 C 383.287 302.222,383.704 302.074,383.704 301.892 C 383.704 301.710,384.120 301.457,384.630 301.329 C 385.139 301.202,385.556 300.934,385.556 300.734 C 385.556 300.534,385.806 300.370,386.111 300.370 C 386.417 300.370,386.667 300.215,386.667 300.025 C 386.667 299.835,387.010 299.571,387.429 299.437 C 388.421 299.123,394.678 292.866,394.993 291.874 C 395.126 291.454,395.391 291.111,395.581 291.111 C 395.770 291.111,395.926 290.861,395.926 290.556 C 395.926 290.250,396.074 290.000,396.255 290.000 C 396.436 290.000,396.694 289.417,396.827 288.704 C 396.961 287.991,397.230 287.407,397.424 287.407 C 397.619 287.407,397.778 286.991,397.778 286.481 C 397.778 285.972,397.926 285.556,398.106 285.556 C 398.287 285.556,398.553 284.764,398.698 283.796 C 398.843 282.829,399.147 281.922,399.373 281.782 C 399.964 281.416,399.978 263.778,399.388 263.413 C 399.154 263.267,398.843 262.356,398.698 261.389 C 398.553 260.421,398.287 259.630,398.106 259.630 C 397.926 259.630,397.778 259.296,397.778 258.889 C 397.778 258.481,397.633 258.148,397.456 258.148 C 397.279 258.148,397.037 257.550,396.918 256.818 C 396.799 256.087,396.385 255.212,395.997 254.874 C 395.609 254.536,395.173 253.884,395.028 253.426 C 394.883 252.968,394.609 252.593,394.419 252.593 C 394.230 252.593,394.074 252.408,394.074 252.181 C 394.074 251.607,386.958 244.461,386.377 244.452 C 386.116 244.448,385.807 244.194,385.689 243.889 C 385.572 243.583,385.161 243.333,384.775 243.333 C 384.390 243.333,384.074 243.180,384.074 242.992 C 384.074 242.805,383.574 242.542,382.963 242.407 C 382.352 242.273,381.852 242.010,381.852 241.822 C 381.852 241.635,381.519 241.481,381.111 241.481 C 380.704 241.481,380.370 241.330,380.370 241.146 C 380.370 240.961,379.537 240.696,378.519 240.556 C 377.500 240.415,376.667 240.150,376.667 239.965 C 376.667 239.781,375.583 239.630,374.259 239.630 C 372.901 239.630,371.852 239.468,371.852 239.259 C 371.852 239.041,370.556 238.889,368.704 238.889 C 366.852 238.889,365.556 239.041,365.556 239.259 M118.035 298.385 C 117.739 298.681,118.073 299.259,118.540 299.259 C 118.732 299.259,118.889 299.009,118.889 298.704 C 118.889 298.131,118.452 297.968,118.035 298.385 M254.444 298.704 C 254.444 299.009,254.611 299.259,254.815 299.259 C 255.019 299.259,255.185 299.009,255.185 298.704 C 255.185 298.398,255.019 298.148,254.815 298.148 C 254.611 298.148,254.444 298.398,254.444 298.704 M60.221 300.272 C 59.776 300.718,60.019 301.111,60.741 301.111 C 61.148 301.111,61.481 300.962,61.481 300.780 C 61.481 300.364,60.518 299.976,60.221 300.272 M115.833 300.258 C 114.766 300.533,115.101 301.111,116.327 301.111 C 117.044 301.111,117.415 300.947,117.323 300.671 C 117.149 300.150,116.717 300.030,115.833 300.258 M252.315 300.266 C 251.584 300.528,251.776 301.111,252.593 301.111 C 253.000 301.111,253.333 300.954,253.333 300.763 C 253.333 300.289,252.875 300.065,252.315 300.266 M195.185 300.741 C 195.185 300.944,195.519 301.111,195.926 301.111 C 196.333 301.111,196.667 300.944,196.667 300.741 C 196.667 300.537,196.333 300.370,195.926 300.370 C 195.519 300.370,195.185 300.537,195.185 300.741 " stroke="none" fill="#040404" fill-rule="evenodd"></path></g></svg>