<!-- Generated by IcoMoon.io -->
<svg version="1.1" xmlns="http://www.w3.org/2000/svg" width="34" height="34" viewBox="0 0 1024 1024">
<title></title>
<g id="icomoon-ignore">
</g>
<path fill="#fff" d="M512.004 702.433c94.256 0 170.667-76.41 170.667-170.667s-76.41-170.667-170.667-170.667c-94.257 0-170.667 76.41-170.667 170.667s76.41 170.667 170.667 170.667z"></path>
<path fill="#000" d="M942.257 428.25h-107.564v-96.901c0-29.068-11.186-56.396-31.503-76.947l-33.953-34.35c4.076-8.662 6.297-18.186 6.297-28.091 0-17.472-6.692-33.871-18.852-46.17l-46.16-46.701c-25.16-25.453-66.106-25.453-91.267 0-25.162 25.459-25.162 66.884 0 92.342l46.156 46.698c12.157 12.295 28.363 19.069 45.636 19.069 9.79 0 19.203-2.246 27.764-6.37l33.953 34.353c12.192 12.33 18.904 28.726 18.904 46.166v96.905h-118.768c-34.776-52.455-93.909-87.058-160.897-87.058s-126.121 34.603-160.897 87.058h-118.767v-96.905c0-17.44 6.712-33.836 18.902-46.166l33.953-34.353c8.561 4.124 17.974 6.37 27.764 6.37 17.273 0 33.479-6.773 45.636-19.069l46.16-46.701c25.16-25.456 25.16-66.881 0-92.336-25.164-25.456-66.108-25.456-91.271-0.003l-46.164 46.701c-12.156 12.296-18.848 28.694-18.848 46.167 0 9.904 2.22 19.431 6.296 28.091l-33.953 34.347c-20.317 20.554-31.503 47.881-31.503 76.951v96.903h-107.563c-11.881 0-21.513 9.742-21.513 21.765v348.232c0 5.771 2.266 11.304 6.302 15.39l80.933 81.882 40.808 542.21c-48.286 10.694-84.539 54.298-84.539 106.311 0 12.023 9.632 21.765 21.513 21.765h774.454c11.88 0 21.512-9.742 21.512-21.765 0-52.011-36.26-95.589-84.542-106.285l40.89-543.284 79.896-80.834c4.036-4.082 6.303-9.616 6.303-15.39v-348.232c0-12.019-9.632-21.765-21.512-21.765zM726.259 207.351c-4.032 4.074-9.433 6.32-15.211 6.32-5.781 0-11.182-2.243-15.213-6.323l-46.158-46.695c-8.387-8.488-8.387-22.299 0-30.784 8.387-8.479 22.038-8.479 30.423 0l46.16 46.701c4.030 4.077 6.248 9.544 6.248 15.392s-2.219 11.312-6.248 15.389v0zM297.747 176.57l46.158-46.698c4.192-4.243 9.702-6.364 15.213-6.364 5.508 0 11.017 2.121 15.209 6.361 8.389 8.488 8.389 22.299 0 30.781l-46.156 46.698c-4.030 4.077-9.435 6.323-15.213 6.323-5.781 0-11.182-2.243-15.211-6.323-4.030-4.074-6.246-9.538-6.246-15.389 0-5.844 2.217-11.312 6.246-15.389zM512.004 384.722c83.036 0 150.588 68.347 150.588 152.351s-67.552 152.351-150.588 152.351c-83.036 0-150.588-68.347-150.588-152.351s67.552-152.351 150.588-152.351zM874.508 1522.278h-724.056c8.877-25.335 32.805-43.53 60.852-43.53 5.989 0 11.709-2.524 15.779-6.969 4.070-4.443 6.127-10.405 5.674-16.446l-41.264-548.264h641.976l-39.749 528.151h-496.361c-11.88 0-21.514 9.742-21.514 21.763 0 12.023 9.634 21.765 21.514 21.765h516.303c28.046 0 51.971 18.195 60.848 43.53v0zM847.294 863.541h-670.582l-43.025-43.53h756.634l-43.026 43.53zM920.743 776.483h-817.478v-304.702h226.226c-7.166 20.436-11.101 42.402-11.101 65.293 0 108.010 86.855 195.879 193.614 195.879s193.614-87.869 193.614-195.879c0-22.891-3.939-44.857-11.101-65.293h226.226v304.702z"></path>
<path fill="#000" d="M511.999 645.896c59.312 0 107.563-48.816 107.563-108.822s-48.252-108.822-107.563-108.822c-59.312 0-107.563 48.816-107.563 108.822s48.251 108.822 107.563 108.822zM511.999 471.78c35.588 0 64.538 29.292 64.538 65.293s-28.95 65.293-64.538 65.293c-35.588 0-64.538-29.292-64.538-65.293s28.95-65.293 64.538-65.293z"></path>
</svg>
