<!-- Generated by IcoMoon.io -->
<svg version="1.1" xmlns="http://www.w3.org/2000/svg" width="1124" height="1024" viewBox="0 0 1124 1024">
<title></title>
<g id="icomoon-ignore">
</g>
<path fill="#fff" d="M562.003 617.834c90.335 0 163.572-73.236 163.572-163.572s-73.236-163.572-163.572-163.572c-90.336 0-163.572 73.236-163.572 163.572s73.236 163.572 163.572 163.572z"></path>
<path fill="#000" d="M974.353 355.070h-103.082v-92.858c0-27.858-10.709-54.042-30.187-73.756l-32.55-32.924c3.909-8.295 6.040-17.434 6.040-26.91 0-16.742-6.412-32.469-18.068-44.245l-44.238-44.761c-24.115-24.392-63.36-24.392-87.475 0-24.116 24.396-24.116 64.096 0 88.491l44.235 44.759c11.653 11.774 27.172 18.267 43.727 18.267 9.372 0 18.409-2.148 26.61-6.115l32.55 32.926c11.678 11.823 18.128 27.523 18.128 44.242v92.886h-113.829c-33.317-50.276-89.996-83.424-154.213-83.424s-120.871 33.173-154.213 83.424h-113.828v-92.886c0-16.719 6.426-32.419 18.127-44.242l32.55-32.926c8.2 3.942 17.237 6.115 26.61 6.115 16.554 0 32.098-6.493 43.727-18.267l44.238-44.761c24.115-24.394 24.115-64.094 0-88.487-24.118-24.394-63.361-24.394-87.478-0.002l-44.241 44.761c-11.653 11.774-18.065 27.501-18.065 44.243 0 9.501 2.13 18.617 6.039 26.91l-32.55 32.922c-19.477 19.691-30.187 45.899-30.187 73.759v92.859h-103.081c-11.388 0-20.627 9.339-20.627 20.85v333.748c0 5.527 2.162 10.841 6.043 14.757l77.578 78.482 39.099 519.66c-46.278 10.245-81.013 52.047-81.013 101.893 0 11.511 9.238 20.85 20.627 20.85h742.245c11.388 0 20.626-9.339 20.626-20.85 0-49.845-34.74-91.604-81.015-101.875l39.181-520.675 76.563-77.46c3.857-3.913 6.044-9.227 6.044-14.757v-333.748c0-11.508-9.238-20.85-20.626-20.85zM767.34 143.354c-3.854 3.908-9.051 6.056-14.583 6.056-5.534 0-10.707-2.146-14.585-6.058l-44.237-44.757c-8.030-8.125-8.030-21.368 0-29.491 8.030-8.119 21.113-8.119 29.167 0l44.238 44.761c3.852 3.91 5.981 9.153 5.981 14.758s-2.129 10.846-5.981 14.756v0zM356.664 113.84l44.237-44.759c4.014-4.074 9.287-6.111 14.585-6.111 5.271 0 10.568 2.037 14.582 6.084 8.032 8.125 8.032 21.368 0 29.489l-44.235 44.759c-3.852 3.91-9.052 6.058-14.585 6.058s-10.707-2.146-14.583-6.058c-3.852-3.908-5.98-9.148-5.98-14.756 0-5.603 2.128-10.846 5.98-14.756zM562.003 313.346c79.577 0 144.334 65.504 144.334 146.024s-64.731 146.024-144.334 146.024c-79.577 0-144.334-65.504-144.334-146.024s64.731-146.024 144.334-146.024zM909.436 1403.587h-693.936c8.518-24.286 31.434-41.725 58.314-41.725 5.728 0 11.22-2.415 15.125-6.678s5.873-9.971 5.435-15.759l-39.539-525.457h615.268l-38.095 506.171h-475.711c-11.388 0-20.627 9.339-20.627 20.849s9.24 20.85 20.627 20.85h494.83c26.879 0 49.818 17.44 58.311 41.725v0zM883.356 772.243h-642.683l-41.227-41.725h725.164l-41.228 41.725zM953.751 688.819h-783.472v-292.022h216.812c-6.864 19.584-10.651 40.648-10.651 62.574 0 103.514 83.235 187.723 185.562 187.723s185.562-84.208 185.562-187.723c0-21.926-3.765-42.99-10.651-62.574h216.812v292.022z"></path>
<path fill="#000" d="M562.003 563.644c56.852 0 103.081-46.793 103.081-104.299s-46.255-104.299-103.081-104.299c-56.852 0-103.081 46.793-103.081 104.299s46.254 104.299 103.081 104.299zM562.003 396.771c34.102 0 61.854 28.063 61.854 62.574s-27.752 62.574-61.854 62.574c-34.102 0-61.854-28.063-61.854-62.574s27.752-62.574 61.854-62.574z"></path>
</svg>
